Coordinates
version=1
nRows=11
nColumns=60
inDegrees=yes

Units are S.I. units (second, meters, Newtons, ...)
If the header above contains a line with 'inDegrees', this indicates whether rotational values are in degrees (yes) or radians (no).

endheader
time	pelvis_tilt	pelvis_list	pelvis_rotation	pelvis_tx	pelvis_ty	pelvis_tz	hip_flexion_r	hip_adduction_r	hip_rotation_r	knee_angle_r_beta	knee_angle_r	ankle_angle_r	subtalar_angle_r	mtp_angle_r	hip_flexion_l	hip_adduction_l	hip_rotation_l	knee_angle_l_beta	knee_angle_l	ankle_angle_l	subtalar_angle_l	mtp_angle_l	L5_S1_Flex_Ext	L5_S1_Lat_Bending	L5_S1_axial_rotation	L4_L5_Flex_Ext	L4_L5_Lat_Bending	L4_L5_axial_rotation	L3_L4_Flex_Ext	L3_L4_Lat_Bending	L3_L4_axial_rotation	L2_L3_Flex_Ext	L2_L3_Lat_Bending	L2_L3_axial_rotation	L1_L2_Flex_Ext	L1_L2_Lat_Bending	L1_L2_axial_rotation	L1_T12_Flex_Ext	L1_T12_Lat_Bending	L1_T12_axial_rotation	Abs_r3	Abs_r2	Abs_r1	Abs_t1	Abs_t2	arm_flex_r	arm_add_r	arm_rot_r	elbow_flex_r	pro_sup_r	wrist_flex_r	wrist_dev_r	arm_flex_l	arm_add_l	arm_rot_l	elbow_flex_l	pro_sup_l	wrist_flex_l	wrist_dev_l
     98.78000000	      1.40850861	     -5.07857831	     93.91859161	      0.40939190	      0.88900626	      0.39670362	     32.18791577	     -4.90377701	     -1.00366062	      0.54581359	    -31.27281507	      6.72715472	      0.00000000	      0.00000000	     33.43561416	     -6.64643792	      0.08955104	      0.51767682	    -29.66069704	      5.46330215	      0.00000000	      0.00000000	    -10.58594031	      0.23463503	     -0.07942712	    -19.65914976	      0.31206459	     -0.08439132	    -17.39164134	      0.57049161	     -0.08439132	    -12.09867119	      0.57049161	     -0.06949873	     -9.83010418	      0.47846775	     -0.06453454	     -6.04880630	      0.36344966	     -0.05957034	    -75.61431307	      2.65423839	     -0.44174982	      0.00000000	      0.00000000	     61.51709037	    -21.68520161	     16.81402005	     57.39894228	     68.52397028	     12.47490017	      9.60417885	     68.96979332	    -22.65206063	     28.52564921	     48.84103118	     60.88736336	     20.70293393	      7.31738174
     98.79000000	      1.42183213	     -4.26851958	     93.90361773	      0.40956938	      0.89173838	      0.39405426	     30.87748641	     -4.77747050	     -1.00444560	      0.53847214	    -30.85218097	      6.70174485	      0.00000000	      0.00000000	     32.14648365	     -6.72689797	      0.10251900	      0.51087061	    -29.27072978	      5.49404891	      0.00000000	      0.00000000	    -10.57911812	      0.23204151	     -0.06495456	    -19.64648025	      0.30861521	     -0.06901423	    -17.38043315	      0.56418574	     -0.06901423	    -12.09087409	      0.56418574	     -0.05683524	     -9.82376908	      0.47317906	     -0.05277558	     -6.04490809	      0.35943231	     -0.04871592	    -75.56558279	      2.62490002	     -0.36125780	      0.00000000	      0.00000000	     59.49185134	    -22.08352278	     16.08562539	     59.29448424	     68.56546126	     12.18992505	      9.66556030	     67.11208727	    -23.03091871	     27.51677607	     50.63481464	     60.75668380	     20.63871533	      7.50501886
     98.80000000	      1.42313705	     -3.68475528	     93.86738019	      0.40974293	      0.89412628	      0.39139812	     29.72782356	     -4.67027924	     -1.02978861	      0.52763885	    -30.23147928	      6.82490890	      0.00000000	      0.00000000	     31.00249443	     -6.78508422	      0.08308540	      0.50085975	    -28.69714989	      5.73432000	      0.00000000	      0.00000000	    -10.50570387	      0.22429617	     -0.06460307	    -19.51014266	      0.29831391	     -0.06864076	    -17.25982089	      0.54535372	     -0.06864076	    -12.00696896	      0.54535372	     -0.05652768	     -9.75559662	      0.45738476	     -0.05248999	     -6.00295919	      0.34743477	     -0.04845230	    -75.04119220	      2.53728319	     -0.35930289	      0.00000000	      0.00000000	     57.67847793	    -22.32089165	     15.90057559	     60.28482946	     68.59845772	     12.10115869	      9.72490929	     65.43051278	    -23.35293377	     27.23554085	     51.55610433	     60.72251285	     20.64247679	      7.61702661
     98.81000000	      1.40948204	     -2.80678421	     93.84165764	      0.40988298	      0.89699258	      0.38846386	     28.26186315	     -4.55089298	     -0.97181062	      0.51799391	    -29.67886477	      6.88192189	      0.00000000	      0.00000000	     29.53891672	     -6.83519071	      0.11995224	      0.49168498	    -28.17147449	      5.95707792	      0.00000000	      0.00000000	    -10.49595148	      0.22143045	     -0.05610777	    -19.49203150	      0.29450250	     -0.05961451	    -17.24379869	      0.53838600	     -0.05961451	    -11.99582295	      0.53838600	     -0.04909430	     -9.74654055	      0.45154098	     -0.04558757	     -5.99738668	      0.34299577	     -0.04208083	    -74.97153185	      2.50486556	     -0.31205461	      0.00000000	      0.00000000	     55.70350959	    -22.63110212	     15.26912936	     62.00542335	     68.63821885	     11.94803071	      9.82268104	     63.57099889	    -23.74679875	     26.46470102	     53.26483138	     60.65256141	     20.63554389	      7.77230147
     98.82000000	      1.40922623	     -1.94512125	     93.80273751	      0.40998155	      0.89967878	      0.38548235	     26.92392926	     -4.45113433	     -1.04243920	      0.51219185	    -29.34643150	      6.87040593	      0.00000000	      0.00000000	     28.20620189	     -6.91284727	      0.10149514	      0.48647114	    -27.87274324	      6.05778645	      0.00000000	      0.00000000	    -10.47326555	      0.21983718	     -0.05246100	    -19.44990146	      0.29238345	     -0.05573981	    -17.20652798	      0.53451212	     -0.05573981	    -11.96989520	      0.53451212	     -0.04590337	     -9.72547439	      0.44829198	     -0.04262456	     -5.98442394	      0.34052779	     -0.03934575	    -74.80948852	      2.48684217	     -0.29177234	      0.00000000	      0.00000000	     53.70664001	    -22.83730478	     14.56016745	     63.65452580	     68.78176836	     11.52446198	     10.43622739	     61.58670854	    -24.06963589	     25.42737375	     54.95921117	     60.62299772	     20.47890427	      8.45531700
     98.83000000	      1.40078427	     -1.12845306	     93.77475591	      0.41009630	      0.90229748	      0.38242079	     25.56049065	     -4.35507173	     -1.08864623	      0.50380371	    -28.86582647	      6.97796152	      0.00000000	      0.00000000	     26.83940788	     -6.98374277	      0.07095936	      0.47855901	    -27.41941155	      6.36535053	      0.00000000	      0.00000000	    -10.43536615	      0.21555296	     -0.06396949	    -19.37951847	      0.28668544	     -0.06796759	    -17.14426304	      0.52409547	     -0.06796759	    -11.92657997	      0.52409547	     -0.05597331	     -9.69028100	      0.43955560	     -0.05197521	     -5.96276822	      0.33389154	     -0.04797712	    -74.53877684	      2.43837823	     -0.35577913	      0.00000000	      0.00000000	     51.88811363	    -22.97607795	     14.11974531	     65.18212075	     69.20435629	      9.60174661	     13.64059933	     59.66222360	    -24.44551025	     24.45889972	     56.67065973	     60.95421096	     19.65022751	     11.70395260
     98.84000000	      1.37533038	     -0.44953264	     93.72642128	      0.41024404	      0.90463293	      0.37926302	     24.35619076	     -4.29806138	     -1.21425550	      0.49544234	    -28.38675489	      7.13640717	      0.00000000	      0.00000000	     25.60377137	     -7.04790995	     -0.07105602	      0.47014621	    -26.93739338	      6.66424903	      0.00000000	      0.00000000	    -10.34830146	      0.20891203	     -0.06753701	    -19.21783065	      0.27785300	     -0.07175807	    -17.00122448	      0.50794870	     -0.07175807	    -11.82707374	      0.50794870	     -0.05909488	     -9.60943274	      0.42601341	     -0.05487382	     -5.91301946	      0.32360473	     -0.05065275	    -73.91688253	      2.36325464	     -0.37562056	      0.00000000	      0.00000000	     50.03908141	    -23.18064596	     13.97329197	     66.05798058	     69.15244993	      9.55760901	     13.63470253	     57.94396843	    -24.76937663	     24.32529461	     57.47212272	     60.91748251	     19.67803686	     11.66475215
     98.85000000	      1.31511429	      0.64871081	     93.66993573	      0.41038707	      0.90761757	      0.37587366	     22.70550510	     -4.21673145	     -1.14075745	      0.48856721	    -27.99283934	      7.20902888	      0.00000000	      0.00000000	     23.90822460	     -7.08398834	     -0.07697625	      0.46283462	    -26.51847058	      6.83148200	      0.00000000	      0.00000000	    -10.35128741	      0.20332064	     -0.06163375	    -19.22337584	      0.27041645	     -0.06548586	    -17.00613008	      0.49435380	     -0.06548586	    -11.83048638	      0.49435380	     -0.05392954	     -9.61220548	      0.41461144	     -0.05007743	     -5.91472562	      0.31494367	     -0.04622532	    -73.93821081	      2.30000370	     -0.34278845	      0.00000000	      0.00000000	     48.04460954	    -23.44135358	     13.30027503	     67.76296351	     69.01166859	      9.40371293	     13.73157731	     56.04907032	    -25.14434011	     23.55887731	     59.19313480	     60.85641452	     19.66169110	     11.60938673
     98.86000000	      1.25703127	      1.52935821	     93.61681042	      0.41052760	      0.91017001	      0.37240789	     21.28811602	     -4.16626868	     -1.15850025	      0.48144466	    -27.58474682	      7.35454584	      0.00000000	      0.00000000	     22.44499420	     -7.12878222	     -0.20018827	      0.45512687	    -26.07684907	      7.02039082	      0.00000000	      0.00000000	    -10.29948589	      0.19660045	     -0.06430398	    -19.12717524	      0.26147860	     -0.06832298	    -16.92102536	      0.47801434	     -0.06832298	    -11.77128242	      0.47801434	     -0.05626598	     -9.56410259	      0.40090764	     -0.05224699	     -5.88512623	      0.30453410	     -0.04822799	    -73.56819773	      2.22398362	     -0.35763946	      0.00000000	      0.00000000	     46.11800786	    -23.64962408	     12.89282586	     69.03499637	     68.87769382	      9.22163947	     13.99265532	     54.18258510	    -25.47635635	     23.01947170	     60.48028474	     60.85798124	     19.59944425	     11.68902696
     98.87000000	      1.20398471	      2.39510801	     93.56918784	      0.41064043	      0.91259787	      0.36886463	     19.90005778	     -4.12211879	     -1.21014123	      0.47500332	    -27.21568567	      7.51193429	      0.00000000	      0.00000000	     21.01955040	     -7.18025354	     -0.36377871	      0.44819729	    -25.67981320	      7.17259753	      0.00000000	      0.00000000	    -10.24169281	      0.18887591	     -0.08014961	    -19.01984772	      0.25120496	     -0.08515896	    -16.82607712	      0.45923288	     -0.08515896	    -11.70523072	      0.45923288	     -0.07013091	     -9.51043595	      0.38515575	     -0.06512156	     -5.85210327	      0.29256878	     -0.06011221	    -73.15538759	      2.13660203	     -0.44576807	      0.00000000	      0.00000000	     44.29891477	    -23.78676094	     12.59056397	     70.41231530	     68.38099190	      7.77436806	     16.46339090	     52.18439890	    -25.81439516	     22.19330536	     62.01596015	     61.34237307	     18.82146683	     13.26463440
     98.88000000	      1.12063052	      3.27068513	     93.52128891	      0.41079695	      0.91498030	      0.36520768	     18.47050588	     -4.07902843	     -1.12841857	      0.46797827	    -26.81317995	      7.71474342	      0.00000000	      0.00000000	     19.53996214	     -7.19059449	     -0.45225747	      0.44019826	    -25.22150218	      7.30432998	      0.00000000	      0.00000000	    -10.17982119	      0.17892894	     -0.08017812	    -18.90494593	      0.23797550	     -0.08518926	    -16.72442823	      0.43504784	     -0.08518926	    -11.63451763	      0.43504784	     -0.07015586	     -9.45298195	      0.36487190	     -0.06514473	     -5.81674983	      0.27716093	     -0.06013359	    -72.71344476	      2.02408001	     -0.44592667	      0.00000000	      0.00000000	     42.29428461	    -24.00868155	     12.06458250	     71.77822325	     68.36582019	      7.65016804	     16.45673840	     50.31776448	    -26.12757828	     21.69449672	     63.31805858	     61.30242526	     18.82185693	     13.24629229
